<svg xmlns="http://www.w3.org/2000/svg" viewBox="0 0 113.17 89.87"><defs><style>.cls-1{fill:#70306c;}.cls-2{fill:#90288f;}</style></defs><title>Asset 10</title><g id="Layer_2" data-name="Layer 2"><g id="Layer_1-2" data-name="Layer 1"><polygon class="cls-1" points="90.79 65.44 105.4 44.38 72.12 0 78.77 0 113.17 45.49 98.21 65.43 90.79 65.44"/><polygon class="cls-1" points="78.64 13.48 102.07 44.38 87.46 65.44 73.23 65.46 61.89 80.04 52.48 68.02 69.9 45.49 61.89 35.1 78.64 13.48"/><polygon class="cls-1" points="79.88 89.87 73.08 89.87 87.65 69.9 85.43 68.79 85.42 67.66 96.59 67.59 79.88 89.87"/><polygon class="cls-2" points="78.29 13 78.64 13.48 61.89 35.1 44.38 57.69 52.48 68.02 61.89 80.04 57.69 85.43 32.17 85.43 12.2 57.69 43.76 15.62 45.49 13.31 78.29 13"/><polygon class="cls-1" points="78.29 13 45.49 13.31 36.25 0 68.42 0 78.29 13"/><polygon class="cls-2" points="68.55 89.71 68.42 89.87 35.78 89.87 34.39 87.65 66.55 87.65 68.55 89.71"/><polygon class="cls-1" points="68.55 89.71 66.55 87.65 66.57 87.65 80.99 67.68 85.42 67.66 85.43 68.79 68.55 89.71"/><polygon class="cls-2" points="37.7 8.9 42.16 14.42 8.88 57.69 32.54 89.87 23.3 89.87 0 58.8 37.7 8.9"/></g></g></svg>